<svg xmlns="http://www.w3.org/2000/svg" xmlns:xlink="http://www.w3.org/1999/xlink" width="1080" zoomAndPan="magnify" viewBox="0 0 810 809.999993" height="1080" preserveAspectRatio="xMidYMid meet" version="1.0"><defs><filter x="0%" y="0%" width="100%" height="100%" id="3abddbdb0b"><feColorMatrix values="0 0 0 0 1 0 0 0 0 1 0 0 0 0 1 0 0 0 1 0" color-interpolation-filters="sRGB"/></filter><clipPath id="7ce8fdda86"><path d="M 25.328125 75.722656 L 784 75.722656 L 784 734.222656 L 25.328125 734.222656 Z M 25.328125 75.722656 " clip-rule="nonzero"/></clipPath><clipPath id="333b9f6672"><path d="M 302.769531 307 L 507.519531 307 L 507.519531 589 L 302.769531 589 Z M 302.769531 307 " clip-rule="nonzero"/></clipPath><clipPath id="071a4269b5"><path d="M 364 632 L 446 632 L 446 652.695312 L 364 652.695312 Z M 364 632 " clip-rule="nonzero"/></clipPath><mask id="5bd04c7485"><g filter="url(#3abddbdb0b)"><rect x="-81" width="972" fill="#000000" y="-80.999999" height="971.999992" fill-opacity="0.15"/></g></mask><clipPath id="a5047698d2"><path d="M 1 0.160156 L 81 0.160156 L 81 20.695312 L 1 20.695312 Z M 1 0.160156 " clip-rule="nonzero"/></clipPath><clipPath id="1a44c8faf5"><rect x="0" width="82" y="0" height="21"/></clipPath></defs><g clip-path="url(#7ce8fdda86)"><path fill="#e17100" d="M 777.480469 675.523438 L 777.484375 675.511719 L 432.246094 94.648438 L 432.070312 94.636719 C 425.5625 83.382812 413.535156 75.722656 399.601562 75.722656 C 387.105469 75.722656 376.117188 81.875 369.273438 91.242188 L 369.175781 91.238281 L 368.949219 91.632812 C 367.683594 93.417969 366.609375 95.335938 365.664062 97.332031 L 32.300781 675.761719 L 32.304688 675.773438 C 28.300781 681.753906 25.953125 688.933594 25.953125 696.671875 C 25.953125 717.457031 42.800781 734.308594 63.589844 734.308594 L 746.371094 734.308594 C 767.152344 734.308594 783.996094 717.457031 783.996094 696.671875 C 783.996094 688.828125 781.585938 681.554688 777.480469 675.523438 Z M 777.480469 675.523438 " fill-opacity="1" fill-rule="nonzero"/></g><g clip-path="url(#333b9f6672)"><path fill="#ffffff" d="M 404.996094 307.109375 C 348.53125 307.109375 302.757812 352.882812 302.757812 409.347656 C 302.757812 465.8125 404.996094 588.6875 404.996094 588.6875 C 404.996094 588.6875 507.234375 465.8125 507.234375 409.347656 C 507.234375 352.882812 461.460938 307.109375 404.996094 307.109375 Z M 404.996094 471.175781 C 370.847656 471.175781 343.167969 443.496094 343.167969 409.347656 C 343.167969 375.199219 370.847656 347.519531 404.996094 347.519531 C 439.144531 347.519531 466.824219 375.199219 466.824219 409.347656 C 466.824219 443.496094 439.144531 471.175781 404.996094 471.175781 Z M 404.996094 471.175781 " fill-opacity="1" fill-rule="nonzero"/></g><g clip-path="url(#071a4269b5)"><g mask="url(#5bd04c7485)"><g transform="matrix(1, 0, 0, 1, 364, 632)"><g clip-path="url(#1a44c8faf5)"><g clip-path="url(#a5047698d2)"><path fill="#231f20" d="M 80.53125 10.425781 C 80.53125 10.761719 80.464844 11.09375 80.339844 11.425781 C 80.210938 11.757812 80.023438 12.089844 79.769531 12.417969 C 79.519531 12.746094 79.203125 13.070312 78.828125 13.390625 C 78.453125 13.710938 78.015625 14.027344 77.519531 14.335938 C 77.023438 14.644531 76.472656 14.945312 75.863281 15.242188 C 75.25 15.535156 74.585938 15.824219 73.867188 16.101562 C 73.148438 16.378906 72.378906 16.648438 71.554688 16.90625 C 70.734375 17.164062 69.867188 17.414062 68.949219 17.648438 C 68.035156 17.886719 67.078125 18.109375 66.078125 18.324219 C 65.074219 18.535156 64.035156 18.734375 62.960938 18.921875 C 61.882812 19.105469 60.773438 19.277344 59.632812 19.4375 C 58.492188 19.59375 57.320312 19.734375 56.125 19.863281 C 54.929688 19.992188 53.710938 20.105469 52.472656 20.203125 C 51.234375 20.300781 49.980469 20.378906 48.707031 20.445312 C 47.4375 20.511719 46.160156 20.558594 44.871094 20.59375 C 43.582031 20.625 42.292969 20.640625 40.996094 20.640625 C 39.703125 20.640625 38.410156 20.625 37.121094 20.59375 C 35.832031 20.558594 34.554688 20.511719 33.285156 20.445312 C 32.015625 20.378906 30.757812 20.300781 29.519531 20.203125 C 28.28125 20.105469 27.0625 19.992188 25.867188 19.863281 C 24.671875 19.734375 23.503906 19.59375 22.359375 19.4375 C 21.21875 19.277344 20.109375 19.105469 19.03125 18.921875 C 17.957031 18.734375 16.917969 18.535156 15.917969 18.324219 C 14.914062 18.109375 13.957031 17.886719 13.042969 17.648438 C 12.125 17.414062 11.257812 17.164062 10.4375 16.90625 C 9.613281 16.648438 8.84375 16.378906 8.125 16.101562 C 7.40625 15.824219 6.742188 15.535156 6.128906 15.242188 C 5.519531 14.945312 4.96875 14.644531 4.472656 14.335938 C 3.976562 14.027344 3.539062 13.710938 3.164062 13.390625 C 2.789062 13.070312 2.476562 12.746094 2.222656 12.417969 C 1.96875 12.089844 1.78125 11.757812 1.652344 11.425781 C 1.527344 11.09375 1.460938 10.761719 1.460938 10.425781 C 1.460938 10.089844 1.527344 9.757812 1.652344 9.421875 C 1.78125 9.089844 1.96875 8.761719 2.222656 8.433594 C 2.476562 8.105469 2.789062 7.78125 3.164062 7.460938 C 3.539062 7.140625 3.976562 6.824219 4.472656 6.515625 C 4.96875 6.207031 5.519531 5.902344 6.128906 5.609375 C 6.742188 5.3125 7.40625 5.027344 8.125 4.75 C 8.84375 4.472656 9.613281 4.203125 10.4375 3.945312 C 11.257812 3.683594 12.125 3.4375 13.042969 3.199219 C 13.957031 2.964844 14.914062 2.738281 15.917969 2.527344 C 16.917969 2.316406 17.957031 2.117188 19.03125 1.929688 C 20.109375 1.746094 21.21875 1.574219 22.359375 1.414062 C 23.503906 1.257812 24.671875 1.113281 25.867188 0.984375 C 27.0625 0.859375 28.28125 0.746094 29.519531 0.648438 C 30.757812 0.550781 32.015625 0.46875 33.285156 0.40625 C 34.554688 0.339844 35.832031 0.289062 37.121094 0.257812 C 38.410156 0.226562 39.703125 0.207031 40.996094 0.207031 C 42.292969 0.207031 43.582031 0.226562 44.871094 0.257812 C 46.160156 0.289062 47.4375 0.339844 48.707031 0.40625 C 49.980469 0.46875 51.234375 0.550781 52.472656 0.648438 C 53.710938 0.746094 54.929688 0.859375 56.125 0.984375 C 57.320312 1.113281 58.492188 1.257812 59.632812 1.414062 C 60.773438 1.574219 61.882812 1.746094 62.960938 1.929688 C 64.035156 2.117188 65.074219 2.316406 66.078125 2.527344 C 67.078125 2.738281 68.035156 2.964844 68.949219 3.199219 C 69.867188 3.4375 70.734375 3.683594 71.554688 3.945312 C 72.378906 4.203125 73.148438 4.472656 73.867188 4.75 C 74.585938 5.027344 75.25 5.3125 75.863281 5.609375 C 76.472656 5.902344 77.023438 6.207031 77.519531 6.515625 C 78.015625 6.824219 78.453125 7.140625 78.828125 7.460938 C 79.203125 7.78125 79.519531 8.105469 79.769531 8.433594 C 80.023438 8.761719 80.210938 9.089844 80.339844 9.421875 C 80.464844 9.757812 80.53125 10.089844 80.53125 10.425781 Z M 80.53125 10.425781 " fill-opacity="1" fill-rule="nonzero"/></g></g></g></g></g><path fill="#ffffff" d="M 432.390625 411.988281 C 432.390625 412.886719 432.34375 413.78125 432.257812 414.675781 C 432.167969 415.566406 432.039062 416.453125 431.863281 417.332031 C 431.6875 418.214844 431.46875 419.082031 431.210938 419.941406 C 430.949219 420.800781 430.648438 421.644531 430.304688 422.472656 C 429.960938 423.300781 429.578125 424.109375 429.152344 424.902344 C 428.730469 425.695312 428.269531 426.460938 427.773438 427.207031 C 427.273438 427.953125 426.738281 428.671875 426.171875 429.367188 C 425.601562 430.0625 425 430.726562 424.367188 431.359375 C 423.730469 431.992188 423.066406 432.59375 422.375 433.164062 C 421.679688 433.734375 420.960938 434.265625 420.214844 434.765625 C 419.46875 435.265625 418.699219 435.726562 417.910156 436.148438 C 417.117188 436.570312 416.308594 436.953125 415.480469 437.296875 C 414.648438 437.640625 413.804688 437.941406 412.949219 438.203125 C 412.089844 438.464844 411.21875 438.679688 410.339844 438.855469 C 409.460938 439.03125 408.574219 439.164062 407.679688 439.25 C 406.789062 439.339844 405.894531 439.382812 404.996094 439.382812 C 404.097656 439.382812 403.203125 439.339844 402.3125 439.25 C 401.417969 439.164062 400.53125 439.03125 399.652344 438.855469 C 398.773438 438.679688 397.902344 438.464844 397.042969 438.203125 C 396.1875 437.941406 395.34375 437.640625 394.511719 437.296875 C 393.683594 436.953125 392.875 436.570312 392.082031 436.148438 C 391.292969 435.726562 390.523438 435.265625 389.777344 434.765625 C 389.03125 434.265625 388.3125 433.734375 387.617188 433.164062 C 386.925781 432.59375 386.261719 431.992188 385.625 431.359375 C 384.992188 430.726562 384.390625 430.0625 383.820312 429.367188 C 383.253906 428.671875 382.71875 427.953125 382.21875 427.207031 C 381.722656 426.460938 381.261719 425.695312 380.839844 424.902344 C 380.414062 424.109375 380.03125 423.300781 379.6875 422.472656 C 379.34375 421.644531 379.042969 420.800781 378.785156 419.941406 C 378.523438 419.082031 378.304688 418.214844 378.128906 417.332031 C 377.957031 416.453125 377.824219 415.566406 377.734375 414.675781 C 377.648438 413.78125 377.605469 412.886719 377.605469 411.988281 C 377.605469 411.09375 377.648438 410.199219 377.734375 409.304688 C 377.824219 408.410156 377.957031 407.527344 378.128906 406.644531 C 378.304688 405.765625 378.523438 404.898438 378.785156 404.039062 C 379.042969 403.179688 379.34375 402.335938 379.6875 401.507812 C 380.03125 400.679688 380.414062 399.867188 380.839844 399.078125 C 381.261719 398.285156 381.722656 397.515625 382.21875 396.769531 C 382.71875 396.023438 383.253906 395.304688 383.820312 394.613281 C 384.390625 393.917969 384.992188 393.253906 385.625 392.621094 C 386.261719 391.984375 386.925781 391.382812 387.617188 390.816406 C 388.3125 390.246094 389.03125 389.710938 389.777344 389.214844 C 390.523438 388.714844 391.292969 388.253906 392.082031 387.832031 C 392.875 387.410156 393.683594 387.027344 394.511719 386.683594 C 395.34375 386.339844 396.1875 386.039062 397.042969 385.777344 C 397.902344 385.515625 398.773438 385.296875 399.652344 385.125 C 400.53125 384.949219 401.417969 384.816406 402.3125 384.730469 C 403.203125 384.640625 404.097656 384.597656 404.996094 384.597656 C 405.894531 384.597656 406.789062 384.640625 407.679688 384.730469 C 408.574219 384.816406 409.460938 384.949219 410.339844 385.125 C 411.21875 385.296875 412.089844 385.515625 412.949219 385.777344 C 413.804688 386.039062 414.648438 386.339844 415.480469 386.683594 C 416.308594 387.027344 417.117188 387.410156 417.910156 387.832031 C 418.699219 388.253906 419.46875 388.714844 420.214844 389.214844 C 420.960938 389.710938 421.679688 390.246094 422.375 390.816406 C 423.066406 391.382812 423.730469 391.984375 424.367188 392.621094 C 425 393.253906 425.601562 393.917969 426.171875 394.613281 C 426.738281 395.304688 427.273438 396.023438 427.773438 396.769531 C 428.269531 397.515625 428.730469 398.285156 429.152344 399.078125 C 429.578125 399.867188 429.960938 400.679688 430.304688 401.507812 C 430.648438 402.335938 430.949219 403.179688 431.210938 404.039062 C 431.46875 404.898438 431.6875 405.765625 431.863281 406.644531 C 432.039062 407.527344 432.167969 408.410156 432.257812 409.304688 C 432.34375 410.199219 432.390625 411.09375 432.390625 411.988281 Z M 432.390625 411.988281 " fill-opacity="1" fill-rule="nonzero"/></svg>